<svg width="307" height="310" xmlns="http://www.w3.org/2000/svg" xmlns:xlink="http://www.w3.org/1999/xlink" xml:space="preserve" overflow="hidden"><defs><linearGradient x1="0" y1="153.488" x2="306.981" y2="153.488" gradientUnits="userSpaceOnUse" spreadMethod="pad" id="fill0"><stop offset="0" stop-color="#562877"/><stop offset="0.5118" stop-color="#562877"/><stop offset="0.9984" stop-color="#562877"/><stop offset="1" stop-color="#562877"/></linearGradient><linearGradient x1="9.63387" y1="153.488" x2="296.851" y2="153.488" gradientUnits="userSpaceOnUse" spreadMethod="pad" id="stroke1"><stop offset="0" stop-color="#FFFFFF"/><stop offset="0.5422" stop-color="#E7E8E9"/><stop offset="0.9949" stop-color="#E6E7E8"/><stop offset="1" stop-color="#E6E7E8"/></linearGradient><linearGradient x1="13.6214" y1="153.488" x2="292.863" y2="153.488" gradientUnits="userSpaceOnUse" spreadMethod="pad" id="fill2"><stop offset="0" stop-color="#562877"/><stop offset="0.5118" stop-color="#562877"/><stop offset="0.9984" stop-color="#562877"/><stop offset="1" stop-color="#562877"/></linearGradient><linearGradient x1="93.9793" y1="135.407" x2="101.92" y2="135.407" gradientUnits="userSpaceOnUse" spreadMethod="pad" id="fill3"><stop offset="0" stop-color="#562877"/><stop offset="0.4092" stop-color="#481E69"/><stop offset="0.5118" stop-color="#441B65"/><stop offset="0.7211" stop-color="#4E226F"/><stop offset="0.9984" stop-color="#562877"/><stop offset="1" stop-color="#562877"/></linearGradient><linearGradient x1="95.5935" y1="141.976" x2="100.313" y2="141.976" gradientUnits="userSpaceOnUse" spreadMethod="pad" id="fill4"><stop offset="0" stop-color="#562877"/><stop offset="0.4092" stop-color="#481E69"/><stop offset="0.5118" stop-color="#441B65"/><stop offset="0.7211" stop-color="#4E226F"/><stop offset="0.9984" stop-color="#562877"/><stop offset="1" stop-color="#562877"/></linearGradient><clipPath id="clip5"><path d="M1089.85 494.183 1107.44 485.486C1107.44 485.486 1104.77 448.643 1101.86 436.483 1098.95 424.484 1094.16 413.371 1084.43 399.439 1073.9 384.34 1052.49 372.663 1038.46 366.986 1020.91 359.899 975.412 359.134 975.412 359.134L975.412 376.77 958.186 372.744 975.811 396.54C975.811 396.54 974.974 462.011 976.688 465.836 978.403 469.621 993.556 468.373 995.789 466.038 997.862 463.863 999.736 450.173 1000.85 446.952 1001.65 444.657 1007.19 434.591 1014.61 435.638 1020.39 436.483 1025.06 453.435 1022.7 458.226 1019.75 464.185 1011.1 473.366 1005.64 478.963 1002.45 482.264 994.074 493.861 994.074 493.861L1082.36 494.143C1082.36 494.143 1084.91 471.997 1080.6 446.509 1077.69 429.276 1068.12 415.264 1057.44 403.828 1053.53 399.641 1038.42 389.977 1023.86 384.823 1010.7 380.193 997.822 379.871 997.822 379.871L997.822 373.187C997.822 373.187 1021.31 376.529 1030.16 380.434 1044.52 386.796 1051.65 390.017 1064.65 402.057 1072.87 409.667 1081.56 425.652 1086.78 447.556 1092.41 471.111 1089.85 494.183 1089.85 494.183Z"/></clipPath><clipPath id="clip6"><path d="M1089.85 494.183 1107.44 485.486C1107.44 485.486 1104.77 448.643 1101.86 436.483 1098.95 424.484 1094.16 413.371 1084.43 399.439 1073.9 384.34 1052.49 372.663 1038.46 366.986 1020.91 359.899 975.412 359.134 975.412 359.134L975.412 376.77 958.186 372.744 975.811 396.54C975.811 396.54 974.974 462.011 976.688 465.836 978.403 469.621 993.556 468.373 995.789 466.038 997.862 463.863 999.736 450.173 1000.85 446.952 1001.65 444.657 1007.19 434.591 1014.61 435.638 1020.39 436.483 1025.06 453.435 1022.7 458.226 1019.75 464.185 1011.1 473.366 1005.64 478.963 1002.45 482.264 994.074 493.861 994.074 493.861L1082.36 494.143C1082.36 494.143 1084.91 471.997 1080.6 446.509 1077.69 429.276 1068.12 415.264 1057.44 403.828 1053.53 399.641 1038.42 389.977 1023.86 384.823 1010.7 380.193 997.822 379.871 997.822 379.871L997.822 373.187C997.822 373.187 1021.31 376.529 1030.16 380.434 1044.52 386.796 1051.65 390.017 1064.65 402.057 1072.87 409.667 1081.56 425.652 1086.78 447.556 1092.41 471.111 1089.85 494.183 1089.85 494.183Z"/></clipPath><linearGradient x1="109.494" y1="123.86" x2="119.665" y2="123.86" gradientUnits="userSpaceOnUse" spreadMethod="pad" id="fill7"><stop offset="0" stop-color="#562877"/><stop offset="0.4092" stop-color="#481E69"/><stop offset="0.5118" stop-color="#441B65"/><stop offset="0.7211" stop-color="#4E226F"/><stop offset="0.9984" stop-color="#562877"/><stop offset="1" stop-color="#562877"/></linearGradient><linearGradient x1="111.557" y1="132.273" x2="117.601" y2="132.273" gradientUnits="userSpaceOnUse" spreadMethod="pad" id="fill8"><stop offset="0" stop-color="#562877"/><stop offset="0.4092" stop-color="#481E69"/><stop offset="0.5118" stop-color="#441B65"/><stop offset="0.7211" stop-color="#4E226F"/><stop offset="0.9984" stop-color="#562877"/><stop offset="1" stop-color="#562877"/></linearGradient></defs><g transform="translate(-877 -281)"><path d="M307 153.48C307 238.255 238.295 306.96 153.52 306.96 68.7052 306.96 0 238.255 0 153.48 0 68.7052 68.7052 0 153.48 0 238.255 0 307 68.7052 307 153.48Z" fill="url(#fill0)" transform="matrix(1 0 0 1.00977 877 281.02)"/><path d="M292.844 153.48C292.844 230.599 230.32 293.084 153.241 293.084 76.122 293.084 13.6374 230.559 13.6374 153.48 13.6374 76.3612 76.1618 13.8766 153.241 13.8766 230.36 13.8766 292.844 76.3612 292.844 153.48Z" stroke="url(#stroke1)" stroke-width="7.97506" stroke-miterlimit="10" fill="url(#fill2)" transform="matrix(1 0 0 1.00977 877 281.02)"/><path d="M93.9861 135.417C93.9861 137.61 95.7805 139.404 97.9736 139.404 100.167 139.404 101.921 137.61 101.921 135.417 101.921 133.223 100.167 131.469 97.9736 131.469 95.7406 131.429 93.9861 133.223 93.9861 135.417Z" fill="url(#fill3)" transform="matrix(1 0 0 1.00977 877 281.02)"/><path d="M95.5811 138.088 100.286 138.088 100.286 145.824 95.5811 145.824Z" fill="url(#fill4)" transform="matrix(1 0 0 1.00977 877 281.02)"/><path d="M212.854 211.1 230.439 202.487C230.439 202.487 227.768 166.001 224.857 153.959 221.946 142.076 217.161 131.07 207.431 117.273 196.904 102.32 175.491 90.7562 161.455 85.1338 143.91 78.1157 98.4123 77.3581 98.4123 77.3581L98.4123 94.8235 81.1861 90.836 98.811 114.402C98.811 114.402 97.9736 179.24 99.6883 183.028 101.403 186.776 116.556 185.54 118.789 183.227 120.862 181.074 122.736 167.516 123.853 164.326 124.65 162.053 130.193 152.084 137.61 153.121 143.392 153.959 148.057 170.746 145.704 175.491 142.754 181.393 134.101 190.484 128.638 196.027 125.448 199.297 117.074 210.781 117.074 210.781L205.358 211.06C205.358 211.06 207.91 189.129 203.603 163.888 200.692 146.821 191.122 132.944 180.436 121.62 176.528 117.473 161.415 107.903 146.861 102.799 133.702 98.2129 120.822 97.8939 120.822 97.8939L120.822 91.2746C120.822 91.2746 144.309 94.5842 153.161 98.4521 167.516 104.752 174.654 107.942 187.653 119.865 195.868 127.402 204.56 143.232 209.784 164.924 215.406 188.251 212.854 211.1 212.854 211.1Z" fill="#FFFFFF" transform="matrix(1 0 0 1.00977 877 281.02)"/><g clip-path="url(#clip5)"><path d="M86.2503 76.0821C86.2503 76.0821 132.785 81.7045 150.968 88.3637 171.504 95.9001 187.215 108.421 199.576 124.57 211.937 140.72 215.406 160.139 216.603 170.666 218.397 186.377 217.958 190.205 218.756 219.155L253.727 194.751 237.338 70.3799 86.2503 76.0821Z" fill="#562877" transform="matrix(1 0 0 1.00977 877 281.02)"/></g><g clip-path="url(#clip6)"><path d="M92.1518 76.0821C92.1518 76.0821 138.686 81.7045 156.869 88.3637 177.405 95.9001 193.116 108.421 205.477 124.57 217.799 140.72 221.308 160.139 222.504 170.666 224.299 186.377 223.86 190.205 224.658 219.155L259.628 194.751 243.239 70.3799 92.1518 76.0821Z" fill="#F2DB06" transform="matrix(1 0 0 1.00977 877 281.02)"/></g><path d="M114.163 218.078 111.81 232.234 205.318 232.234 205.318 218.078Z" fill="#FFFFFF" transform="matrix(1 0 0 1.00977 877 281.02)"/><path d="M109.498 123.853C109.498 126.684 111.77 128.957 114.602 128.957 117.393 128.957 119.666 126.684 119.666 123.853 119.666 121.061 117.393 118.789 114.602 118.789 111.77 118.789 109.498 121.061 109.498 123.853Z" fill="url(#fill7)" transform="matrix(1 0 0 1.00977 877 281.02)"/><path d="M111.571 127.322 117.632 127.322 117.632 137.211 111.571 137.211Z" fill="url(#fill8)" transform="matrix(1 0 0 1.00977 877 281.02)"/></g></svg>